<svg width="32" height="32" viewBox="0 0 32 32" fill="none" xmlns="http://www.w3.org/2000/svg">
<rect width="32" height="32" rx="8" fill="white"/>
<path d="M4.44625 3H27.57C28.3663 3 29 3.63375 29 4.43V27.57C29 28.35 28.3663 29 27.57 29H20.94V18.925H24.32L24.8237 15.0088H20.94V12.5062C20.94 11.3687 21.265 10.5887 22.89 10.5887H24.97V7.07875C24.6125 7.03 23.3775 6.9325 21.9475 6.9325C18.9412 6.9325 16.8938 8.7525 16.8938 12.1163V15.0088H13.4975V18.925H16.8938V29H4.44625C4.06548 29 3.70006 28.8499 3.4293 28.5822C3.15854 28.3144 3.00428 27.9507 3 27.57V4.43C3 3.63375 3.65 3 4.44625 3Z" fill="#2F80ED"/>
</svg>
