<svg width="32" height="32" viewBox="0 0 32 32" fill="none" xmlns="http://www.w3.org/2000/svg">
<rect width="32" height="32" rx="8" fill="white"/>
<path fill-rule="evenodd" clip-rule="evenodd" d="M29.465 13.375H16.0892V18.625H23.9363C23.2229 22.3 19.8344 24.75 16.0892 24.575C11.4522 24.4 7.88535 20.9 7.70701 16.35C7.52866 11.625 11.2739 7.6 16.0892 7.425C18.051 7.425 20.0127 8.125 21.6178 9.525L25.7197 5.675C23.2229 3.225 19.6561 2 16.2675 2C8.42038 2 2 8.3 2 16C2 23.7 8.42038 30 16.2675 30C24.4713 30 30 24.4 30 16.35C29.8217 15.3 29.8217 14.425 29.465 13.375Z" fill="#C4C4C4"/>
<path fill-rule="evenodd" clip-rule="evenodd" d="M8.83773 11.7865C10.2791 9.28167 12.9585 7.53883 16.0908 7.425C18.0525 7.425 20.0143 8.125 21.6194 9.525L25.7213 5.675C23.2245 3.225 19.6576 2 16.2691 2C11.5585 2 7.36211 4.27019 4.76 7.75064L8.83773 11.7865Z" fill="#F71717"/>
<path fill-rule="evenodd" clip-rule="evenodd" d="M4.77951 7.72253C3.0341 10.045 2 12.9098 2 16C2 18.2438 2.54517 20.3687 3.51196 22.2534L7.82651 17.4979C7.76265 17.124 7.72233 16.7409 7.70701 16.35C7.64466 14.6981 8.06187 13.1318 8.83673 11.7856L4.76001 7.75066C4.76703 7.74128 4.77405 7.7319 4.78109 7.72253H4.77951Z" fill="#F4F83F"/>
<path fill-rule="evenodd" clip-rule="evenodd" d="M23.5193 28.2247C21.4758 29.3684 19.0225 29.9999 16.2675 29.9999C10.707 29.9999 5.86293 26.8366 3.51196 22.2534L7.82651 17.4978C8.50605 21.4767 11.8506 24.415 16.0892 24.5749C17.4634 24.6391 18.7897 24.3499 19.9533 23.7764L23.5193 28.2247Z" fill="#00F418"/>
<path d="M29.465 13.375H16.0892V18.625H23.9363C23.4847 20.9515 21.961 22.7871 19.9533 23.7765L23.5193 28.2247C27.5611 25.9626 30 21.6967 30 16.35C29.9431 16.0152 29.9044 15.6982 29.8665 15.3876C29.7854 14.7242 29.7079 14.0902 29.465 13.375Z" fill="#0381F6"/>
</svg>
